<mxfile host="Electron" agent="Mozilla/5.0 (Macintosh; Intel Mac OS X 10_15_7) AppleWebKit/537.36 (KHTML, like Gecko) draw.io/24.7.17 Chrome/128.0.6613.36 Electron/32.0.1 Safari/537.36" version="24.7.17">
  <diagram id="R2lEEEUBdFMjLlhIrx00" name="Page-1">
    <mxGraphModel dx="1158" dy="879" grid="1" gridSize="10" guides="1" tooltips="1" connect="1" arrows="1" fold="1" page="1" pageScale="1" pageWidth="850" pageHeight="1100" math="0" shadow="0" extFonts="Permanent Marker^https://fonts.googleapis.com/css?family=Permanent+Marker">
      <root>
        <mxCell id="0" />
        <mxCell id="1" parent="0" />
        <mxCell id="hy8VApLiuNe22YVZHpK1-1" value="&lt;div style=&quot;background-color:#1e1f22;color:#bcbec4&quot;&gt;&lt;pre style=&quot;font-family:&#39;JetBrains Mono&#39;,monospace;font-size:10.5pt;&quot;&gt;Feature&lt;/pre&gt;&lt;/div&gt;" style="swimlane;childLayout=stackLayout;horizontal=1;startSize=50;horizontalStack=0;rounded=1;fontSize=14;fontStyle=0;strokeWidth=2;resizeParent=0;resizeLast=1;shadow=0;dashed=0;align=center;arcSize=4;whiteSpace=wrap;html=1;" vertex="1" parent="1">
          <mxGeometry x="370" y="210" width="160" height="120" as="geometry" />
        </mxCell>
        <mxCell id="hy8VApLiuNe22YVZHpK1-2" value="+id&lt;br&gt;+name&lt;br&gt;+geometry" style="align=left;strokeColor=none;fillColor=none;spacingLeft=4;fontSize=12;verticalAlign=top;resizable=0;rotatable=0;part=1;html=1;" vertex="1" parent="hy8VApLiuNe22YVZHpK1-1">
          <mxGeometry y="50" width="160" height="70" as="geometry" />
        </mxCell>
        <mxCell id="hy8VApLiuNe22YVZHpK1-3" value="&lt;div style=&quot;background-color:#1e1f22;color:#bcbec4&quot;&gt;&lt;pre style=&quot;font-family:&#39;JetBrains Mono&#39;,monospace;font-size:10.5pt;&quot;&gt;&lt;div&gt;&lt;pre style=&quot;font-family:&#39;JetBrains Mono&#39;,monospace;font-size:10.5pt;&quot;&gt;ExtremePoint&lt;/pre&gt;&lt;/div&gt;&lt;/pre&gt;&lt;/div&gt;" style="swimlane;childLayout=stackLayout;horizontal=1;startSize=50;horizontalStack=0;rounded=1;fontSize=14;fontStyle=0;strokeWidth=2;resizeParent=0;resizeLast=1;shadow=0;dashed=0;align=center;arcSize=4;whiteSpace=wrap;html=1;" vertex="1" parent="1">
          <mxGeometry x="590" y="450" width="160" height="120" as="geometry" />
        </mxCell>
        <mxCell id="hy8VApLiuNe22YVZHpK1-4" value="+id&lt;br&gt;+&lt;span style=&quot;font-family: &amp;quot;JetBrains Mono&amp;quot;, monospace; font-size: 10.5pt; background-color: rgb(30, 31, 34); color: rgb(188, 190, 196);&quot;&gt;direction&lt;/span&gt;&lt;br&gt;+&lt;span style=&quot;font-family: &amp;quot;JetBrains Mono&amp;quot;, monospace; font-size: 10.5pt; background-color: rgb(30, 31, 34); color: rgb(188, 190, 196);&quot;&gt;point&lt;/span&gt;" style="align=left;strokeColor=none;fillColor=none;spacingLeft=4;fontSize=12;verticalAlign=top;resizable=0;rotatable=0;part=1;html=1;" vertex="1" parent="hy8VApLiuNe22YVZHpK1-3">
          <mxGeometry y="50" width="160" height="70" as="geometry" />
        </mxCell>
        <mxCell id="hy8VApLiuNe22YVZHpK1-7" value="" style="edgeStyle=entityRelationEdgeStyle;fontSize=12;html=1;endArrow=ERmany;rounded=0;exitX=1;exitY=0.25;exitDx=0;exitDy=0;entryX=0;entryY=0.5;entryDx=0;entryDy=0;" edge="1" parent="1" source="hy8VApLiuNe22YVZHpK1-2" target="hy8VApLiuNe22YVZHpK1-3">
          <mxGeometry width="100" height="100" relative="1" as="geometry">
            <mxPoint x="270" y="330" as="sourcePoint" />
            <mxPoint x="280" y="520" as="targetPoint" />
            <Array as="points">
              <mxPoint x="250" y="380" />
              <mxPoint x="270" y="380" />
            </Array>
          </mxGeometry>
        </mxCell>
        <mxCell id="hy8VApLiuNe22YVZHpK1-25" value="has extreme points" style="edgeLabel;html=1;align=center;verticalAlign=middle;resizable=0;points=[];" vertex="1" connectable="0" parent="hy8VApLiuNe22YVZHpK1-7">
          <mxGeometry x="-0.1077" y="1" relative="1" as="geometry">
            <mxPoint y="1" as="offset" />
          </mxGeometry>
        </mxCell>
        <mxCell id="hy8VApLiuNe22YVZHpK1-8" value="&lt;div style=&quot;background-color:#1e1f22;color:#bcbec4&quot;&gt;&lt;pre style=&quot;font-family:&#39;JetBrains Mono&#39;,monospace;font-size:10.5pt;&quot;&gt;&lt;div&gt;&lt;pre style=&quot;font-family:&#39;JetBrains Mono&#39;,monospace;font-size:10.5pt;&quot;&gt;Square&lt;/pre&gt;&lt;/div&gt;&lt;/pre&gt;&lt;/div&gt;" style="swimlane;childLayout=stackLayout;horizontal=1;startSize=50;horizontalStack=0;rounded=1;fontSize=14;fontStyle=0;strokeWidth=2;resizeParent=0;resizeLast=1;shadow=0;dashed=0;align=center;arcSize=4;whiteSpace=wrap;html=1;" vertex="1" parent="1">
          <mxGeometry x="250" y="470" width="160" height="120" as="geometry" />
        </mxCell>
        <mxCell id="hy8VApLiuNe22YVZHpK1-9" value="+id" style="align=left;strokeColor=none;fillColor=none;spacingLeft=4;fontSize=12;verticalAlign=top;resizable=0;rotatable=0;part=1;html=1;" vertex="1" parent="hy8VApLiuNe22YVZHpK1-8">
          <mxGeometry y="50" width="160" height="70" as="geometry" />
        </mxCell>
        <mxCell id="hy8VApLiuNe22YVZHpK1-10" value="&lt;div style=&quot;background-color:#1e1f22;color:#bcbec4&quot;&gt;&lt;pre style=&quot;font-family:&#39;JetBrains Mono&#39;,monospace;font-size:10.5pt;&quot;&gt;&lt;pre style=&quot;font-family:&#39;JetBrains Mono&#39;,monospace;font-size:10.5pt;&quot;&gt;&lt;div&gt;&lt;pre style=&quot;font-family:&#39;JetBrains Mono&#39;,monospace;font-size:10.5pt;&quot;&gt;Vertex&lt;/pre&gt;&lt;/div&gt;&lt;/pre&gt;&lt;/pre&gt;&lt;/div&gt;" style="swimlane;childLayout=stackLayout;horizontal=1;startSize=50;horizontalStack=0;rounded=1;fontSize=14;fontStyle=0;strokeWidth=2;resizeParent=0;resizeLast=1;shadow=0;dashed=0;align=center;arcSize=4;whiteSpace=wrap;html=1;" vertex="1" parent="1">
          <mxGeometry x="480" y="650" width="160" height="120" as="geometry" />
        </mxCell>
        <mxCell id="hy8VApLiuNe22YVZHpK1-11" value="+id&lt;br&gt;+point" style="align=left;strokeColor=none;fillColor=none;spacingLeft=4;fontSize=12;verticalAlign=top;resizable=0;rotatable=0;part=1;html=1;" vertex="1" parent="hy8VApLiuNe22YVZHpK1-10">
          <mxGeometry y="50" width="160" height="70" as="geometry" />
        </mxCell>
        <mxCell id="hy8VApLiuNe22YVZHpK1-12" value="" style="edgeStyle=entityRelationEdgeStyle;fontSize=12;html=1;endArrow=ERmany;rounded=0;exitX=1;exitY=0.25;exitDx=0;exitDy=0;entryX=0;entryY=0.5;entryDx=0;entryDy=0;" edge="1" parent="1" source="hy8VApLiuNe22YVZHpK1-9" target="hy8VApLiuNe22YVZHpK1-10">
          <mxGeometry width="100" height="100" relative="1" as="geometry">
            <mxPoint x="395" y="538" as="sourcePoint" />
            <mxPoint x="455" y="770" as="targetPoint" />
            <Array as="points">
              <mxPoint x="115" y="640" />
              <mxPoint x="135" y="640" />
            </Array>
          </mxGeometry>
        </mxCell>
        <mxCell id="hy8VApLiuNe22YVZHpK1-26" value="has&amp;nbsp;&lt;span style=&quot;font-family: &amp;quot;JetBrains Mono&amp;quot;, monospace; font-size: 10.5pt; background-color: rgb(30, 31, 34); color: rgb(188, 190, 196);&quot;&gt;vertices&lt;/span&gt;" style="edgeLabel;html=1;align=center;verticalAlign=middle;resizable=0;points=[];" vertex="1" connectable="0" parent="hy8VApLiuNe22YVZHpK1-12">
          <mxGeometry x="-0.091" y="3" relative="1" as="geometry">
            <mxPoint as="offset" />
          </mxGeometry>
        </mxCell>
        <mxCell id="hy8VApLiuNe22YVZHpK1-14" value="&lt;div style=&quot;background-color:#1e1f22;color:#bcbec4&quot;&gt;&lt;pre style=&quot;font-family:&#39;JetBrains Mono&#39;,monospace;font-size:10.5pt;&quot;&gt;&lt;div&gt;&lt;pre style=&quot;font-family:&#39;JetBrains Mono&#39;,monospace;font-size:10.5pt;&quot;&gt;Grid&lt;/pre&gt;&lt;/div&gt;&lt;/pre&gt;&lt;/div&gt;" style="swimlane;childLayout=stackLayout;horizontal=1;startSize=50;horizontalStack=0;rounded=1;fontSize=14;fontStyle=0;strokeWidth=2;resizeParent=0;resizeLast=1;shadow=0;dashed=0;align=center;arcSize=4;whiteSpace=wrap;html=1;" vertex="1" parent="1">
          <mxGeometry x="30" y="280" width="160" height="120" as="geometry" />
        </mxCell>
        <mxCell id="hy8VApLiuNe22YVZHpK1-15" value="+id" style="align=left;strokeColor=none;fillColor=none;spacingLeft=4;fontSize=12;verticalAlign=top;resizable=0;rotatable=0;part=1;html=1;" vertex="1" parent="hy8VApLiuNe22YVZHpK1-14">
          <mxGeometry y="50" width="160" height="70" as="geometry" />
        </mxCell>
        <mxCell id="hy8VApLiuNe22YVZHpK1-16" value="" style="edgeStyle=entityRelationEdgeStyle;fontSize=12;html=1;endArrow=ERmany;rounded=0;exitX=1;exitY=0.25;exitDx=0;exitDy=0;entryX=0;entryY=0.5;entryDx=0;entryDy=0;" edge="1" parent="1" source="hy8VApLiuNe22YVZHpK1-15" target="hy8VApLiuNe22YVZHpK1-8">
          <mxGeometry width="100" height="100" relative="1" as="geometry">
            <mxPoint x="230" y="330" as="sourcePoint" />
            <mxPoint x="330" y="502" as="targetPoint" />
            <Array as="points">
              <mxPoint x="-35" y="432" />
              <mxPoint x="-15" y="432" />
            </Array>
          </mxGeometry>
        </mxCell>
        <mxCell id="hy8VApLiuNe22YVZHpK1-17" value="matches" style="edgeLabel;html=1;align=center;verticalAlign=middle;resizable=0;points=[];" vertex="1" connectable="0" parent="hy8VApLiuNe22YVZHpK1-16">
          <mxGeometry x="-0.005" y="-1" relative="1" as="geometry">
            <mxPoint as="offset" />
          </mxGeometry>
        </mxCell>
        <mxCell id="hy8VApLiuNe22YVZHpK1-18" value="" style="fontSize=12;html=1;endArrow=ERmany;rounded=0;edgeStyle=orthogonalEdgeStyle;elbow=vertical;exitX=0.5;exitY=1;exitDx=0;exitDy=0;entryX=0;entryY=0.5;entryDx=0;entryDy=0;" edge="1" parent="1" source="hy8VApLiuNe22YVZHpK1-14" target="hy8VApLiuNe22YVZHpK1-9">
          <mxGeometry width="100" height="100" relative="1" as="geometry">
            <mxPoint x="100.00000000000011" y="400" as="sourcePoint" />
            <mxPoint x="210" y="610" as="targetPoint" />
            <Array as="points">
              <mxPoint x="110" y="555" />
            </Array>
          </mxGeometry>
        </mxCell>
        <mxCell id="hy8VApLiuNe22YVZHpK1-19" value="not matches" style="edgeLabel;html=1;align=center;verticalAlign=middle;resizable=0;points=[];" vertex="1" connectable="0" parent="hy8VApLiuNe22YVZHpK1-18">
          <mxGeometry x="-0.005" y="-1" relative="1" as="geometry">
            <mxPoint as="offset" />
          </mxGeometry>
        </mxCell>
        <mxCell id="hy8VApLiuNe22YVZHpK1-20" value="&lt;div style=&quot;background-color:#1e1f22;color:#bcbec4&quot;&gt;&lt;pre style=&quot;font-family:&#39;JetBrains Mono&#39;,monospace;font-size:10.5pt;&quot;&gt;&lt;pre style=&quot;font-family:&#39;JetBrains Mono&#39;,monospace;font-size:10.5pt;&quot;&gt;&lt;pre style=&quot;font-family:&#39;JetBrains Mono&#39;,monospace;font-size:10.5pt;&quot;&gt;&lt;div&gt;&lt;pre style=&quot;font-family:&#39;JetBrains Mono&#39;,monospace;font-size:10.5pt;&quot;&gt;Sector&lt;/pre&gt;&lt;/div&gt;&lt;/pre&gt;&lt;/pre&gt;&lt;/pre&gt;&lt;/div&gt;" style="swimlane;childLayout=stackLayout;horizontal=1;startSize=50;horizontalStack=0;rounded=1;fontSize=14;fontStyle=0;strokeWidth=2;resizeParent=0;resizeLast=1;shadow=0;dashed=0;align=center;arcSize=4;whiteSpace=wrap;html=1;" vertex="1" parent="1">
          <mxGeometry x="760" y="800" width="160" height="170" as="geometry" />
        </mxCell>
        <mxCell id="hy8VApLiuNe22YVZHpK1-21" value="+id&lt;div&gt;&lt;span style=&quot;font-family: &amp;quot;JetBrains Mono&amp;quot;, monospace; font-size: 10.5pt; background-color: rgb(30, 31, 34); color: rgb(188, 190, 196);&quot;&gt;+&lt;/span&gt;&lt;span style=&quot;font-family: &amp;quot;JetBrains Mono&amp;quot;, monospace; font-size: 10.5pt; background-color: rgb(30, 31, 34); color: rgb(188, 190, 196);&quot;&gt;azimuth&lt;/span&gt;&lt;/div&gt;&lt;div&gt;&lt;span style=&quot;font-family: &amp;quot;JetBrains Mono&amp;quot;, monospace; font-size: 10.5pt; background-color: rgb(30, 31, 34); color: rgb(188, 190, 196);&quot;&gt;+&lt;/span&gt;&lt;span style=&quot;font-family: &amp;quot;JetBrains Mono&amp;quot;, monospace; font-size: 10.5pt; background-color: rgb(30, 31, 34); color: rgb(188, 190, 196);&quot;&gt;radius&lt;/span&gt;&lt;/div&gt;&lt;div&gt;&lt;span style=&quot;font-family: &amp;quot;JetBrains Mono&amp;quot;, monospace; font-size: 10.5pt; background-color: rgb(30, 31, 34); color: rgb(188, 190, 196);&quot;&gt;+&lt;/span&gt;&lt;span style=&quot;font-family: &amp;quot;JetBrains Mono&amp;quot;, monospace; font-size: 10.5pt; background-color: rgb(30, 31, 34); color: rgb(188, 190, 196);&quot;&gt;angle&lt;/span&gt;&lt;/div&gt;&lt;div&gt;&lt;span style=&quot;font-family: &amp;quot;JetBrains Mono&amp;quot;, monospace; font-size: 10.5pt; background-color: rgb(30, 31, 34); color: rgb(188, 190, 196);&quot;&gt;+&lt;/span&gt;&lt;span style=&quot;font-family: &amp;quot;JetBrains Mono&amp;quot;, monospace; font-size: 10.5pt; background-color: rgb(30, 31, 34); color: rgb(188, 190, 196);&quot;&gt;polygon&lt;/span&gt;&lt;/div&gt;" style="align=left;strokeColor=none;fillColor=none;spacingLeft=4;fontSize=12;verticalAlign=top;resizable=0;rotatable=0;part=1;html=1;" vertex="1" parent="hy8VApLiuNe22YVZHpK1-20">
          <mxGeometry y="50" width="160" height="120" as="geometry" />
        </mxCell>
        <mxCell id="hy8VApLiuNe22YVZHpK1-29" value="" style="edgeStyle=entityRelationEdgeStyle;fontSize=12;html=1;endArrow=ERmany;rounded=0;exitX=1;exitY=0.25;exitDx=0;exitDy=0;entryX=0;entryY=0.175;entryDx=0;entryDy=0;entryPerimeter=0;" edge="1" parent="1" source="hy8VApLiuNe22YVZHpK1-10" target="hy8VApLiuNe22YVZHpK1-20">
          <mxGeometry width="100" height="100" relative="1" as="geometry">
            <mxPoint x="644" y="710" as="sourcePoint" />
            <mxPoint x="560" y="1030" as="targetPoint" />
          </mxGeometry>
        </mxCell>
        <mxCell id="hy8VApLiuNe22YVZHpK1-30" value="has sector" style="edgeLabel;html=1;align=center;verticalAlign=middle;resizable=0;points=[];" vertex="1" connectable="0" parent="hy8VApLiuNe22YVZHpK1-29">
          <mxGeometry x="-0.0248" y="2" relative="1" as="geometry">
            <mxPoint as="offset" />
          </mxGeometry>
        </mxCell>
        <mxCell id="hy8VApLiuNe22YVZHpK1-33" value="&lt;div style=&quot;background-color:#1e1f22;color:#bcbec4&quot;&gt;&lt;pre style=&quot;font-family:&#39;JetBrains Mono&#39;,monospace;font-size:10.5pt;&quot;&gt;&lt;pre style=&quot;font-family:&#39;JetBrains Mono&#39;,monospace;font-size:10.5pt;&quot;&gt;&lt;div&gt;&lt;pre style=&quot;font-family:&#39;JetBrains Mono&#39;,monospace;font-size:10.5pt;&quot;&gt;Intersect&lt;/pre&gt;&lt;/div&gt;&lt;/pre&gt;&lt;/pre&gt;&lt;/div&gt;" style="swimlane;childLayout=stackLayout;horizontal=1;startSize=50;horizontalStack=0;rounded=1;fontSize=14;fontStyle=0;strokeWidth=2;resizeParent=0;resizeLast=1;shadow=0;dashed=0;align=center;arcSize=4;whiteSpace=wrap;html=1;" vertex="1" parent="1">
          <mxGeometry x="425" y="920" width="160" height="120" as="geometry" />
        </mxCell>
        <mxCell id="hy8VApLiuNe22YVZHpK1-34" value="+id" style="align=left;strokeColor=none;fillColor=none;spacingLeft=4;fontSize=12;verticalAlign=top;resizable=0;rotatable=0;part=1;html=1;" vertex="1" parent="hy8VApLiuNe22YVZHpK1-33">
          <mxGeometry y="50" width="160" height="70" as="geometry" />
        </mxCell>
        <mxCell id="hy8VApLiuNe22YVZHpK1-35" value="" style="edgeStyle=entityRelationEdgeStyle;fontSize=12;html=1;endArrow=ERmany;rounded=0;exitX=1;exitY=0.25;exitDx=0;exitDy=0;" edge="1" parent="1" source="hy8VApLiuNe22YVZHpK1-34" target="hy8VApLiuNe22YVZHpK1-21">
          <mxGeometry width="100" height="100" relative="1" as="geometry">
            <mxPoint x="640" y="990" as="sourcePoint" />
            <mxPoint x="760" y="1140" as="targetPoint" />
          </mxGeometry>
        </mxCell>
        <mxCell id="hy8VApLiuNe22YVZHpK1-36" value="sector" style="edgeLabel;html=1;align=center;verticalAlign=middle;resizable=0;points=[];" vertex="1" connectable="0" parent="hy8VApLiuNe22YVZHpK1-35">
          <mxGeometry x="-0.0248" y="2" relative="1" as="geometry">
            <mxPoint as="offset" />
          </mxGeometry>
        </mxCell>
        <mxCell id="hy8VApLiuNe22YVZHpK1-45" value="" style="fontSize=12;html=1;endArrow=ERmany;rounded=0;entryX=0.44;entryY=1.019;entryDx=0;entryDy=0;entryPerimeter=0;exitX=0.5;exitY=0;exitDx=0;exitDy=0;" edge="1" parent="1" source="hy8VApLiuNe22YVZHpK1-33" target="hy8VApLiuNe22YVZHpK1-11">
          <mxGeometry width="100" height="100" relative="1" as="geometry">
            <mxPoint x="330" y="870" as="sourcePoint" />
            <mxPoint x="430" y="770" as="targetPoint" />
          </mxGeometry>
        </mxCell>
        <mxCell id="hy8VApLiuNe22YVZHpK1-46" value="vertex" style="edgeLabel;html=1;align=center;verticalAlign=middle;resizable=0;points=[];" vertex="1" connectable="0" parent="hy8VApLiuNe22YVZHpK1-45">
          <mxGeometry x="0.0166" y="-3" relative="1" as="geometry">
            <mxPoint as="offset" />
          </mxGeometry>
        </mxCell>
      </root>
    </mxGraphModel>
  </diagram>
</mxfile>
